<svg width="66" height="32" viewBox="0 0 66 32" fill="none" xmlns="http://www.w3.org/2000/svg">
<g clip-path="url(#clip0_4_203)">
<path fill-rule="evenodd" clip-rule="evenodd" d="M41.8047 22.75H41.0547V7.75C41.0547 7.33579 40.7189 7 40.3047 7H35.0547C34.6405 7 34.3047 7.33579 34.3047 7.75V11.5H29.8047C29.3905 11.5 29.0547 11.8358 29.0547 12.25V16H25.3047C24.8905 16 24.5547 16.3358 24.5547 16.75V22.75H23.8047C23.3905 22.75 23.0547 23.0858 23.0547 23.5C23.0547 23.9142 23.3905 24.25 23.8047 24.25H41.8047C42.2189 24.25 42.5547 23.9142 42.5547 23.5C42.5547 23.0858 42.2189 22.75 41.8047 22.75ZM35.8047 8.5H39.5547V22.75H35.8047V8.5ZM30.5547 13H34.3047V22.75H30.5547V13ZM26.0547 17.5H29.0547V22.75H26.0547V17.5Z" fill="#4F6696"/>
</g>
<defs>
<clipPath id="clip0_4_203">
<rect width="24" height="24" fill="white" transform="translate(20.8047 4)"/>
</clipPath>
</defs>
</svg>
