<svg width="66" height="32" viewBox="0 0 66 32" fill="none" xmlns="http://www.w3.org/2000/svg">
<g clip-path="url(#clip0_4_215)">
<path fill-rule="evenodd" clip-rule="evenodd" d="M33.2109 12.25C31.1399 12.25 29.4609 13.9289 29.4609 16C29.4609 18.0711 31.1399 19.75 33.2109 19.75C35.282 19.75 36.9609 18.0711 36.9609 16C36.9609 13.9289 35.282 12.25 33.2109 12.25ZM33.2109 18.25C31.9683 18.25 30.9609 17.2426 30.9609 16C30.9609 14.7574 31.9683 13.75 33.2109 13.75C34.4536 13.75 35.4609 14.7574 35.4609 16C35.4609 17.2426 34.4536 18.25 33.2109 18.25ZM43.7109 9.25H22.7109C22.2967 9.25 21.9609 9.58579 21.9609 10V22C21.9609 22.4142 22.2967 22.75 22.7109 22.75H43.7109C44.1252 22.75 44.4609 22.4142 44.4609 22V10C44.4609 9.58579 44.1252 9.25 43.7109 9.25ZM39.3656 21.25H27.0563C26.5446 19.5197 25.1913 18.1663 23.4609 17.6547V14.3453C25.1913 13.8337 26.5446 12.4803 27.0563 10.75H39.3656C39.8773 12.4803 41.2306 13.8337 42.9609 14.3453V17.6547C41.2306 18.1663 39.8773 19.5197 39.3656 21.25ZM42.9609 12.7534C42.0613 12.3666 41.3443 11.6496 40.9575 10.75H42.9609V12.7534ZM25.4644 10.75C25.0776 11.6496 24.3605 12.3666 23.4609 12.7534V10.75H25.4644ZM23.4609 19.2466C24.3605 19.6334 25.0776 20.3504 25.4644 21.25H23.4609V19.2466ZM40.9575 21.25C41.3443 20.3504 42.0613 19.6334 42.9609 19.2466V21.25H40.9575Z" fill="#4F6696"/>
</g>
<defs>
<clipPath id="clip0_4_215">
<rect width="24" height="24" fill="white" transform="translate(21.2109 4)"/>
</clipPath>
</defs>
</svg>
