<svg width="66" height="32" viewBox="0 0 66 32" fill="none" xmlns="http://www.w3.org/2000/svg">
<g clip-path="url(#clip0_4_197)">
<path fill-rule="evenodd" clip-rule="evenodd" d="M41.6016 14.8328V23.5C41.6016 24.3284 40.93 25 40.1016 25H36.3516C35.5231 25 34.8516 24.3284 34.8516 23.5V19.75C34.8516 19.3358 34.5158 19 34.1016 19H31.1016C30.6873 19 30.3516 19.3358 30.3516 19.75V23.5C30.3516 24.3284 29.68 25 28.8516 25H25.1016C24.2731 25 23.6016 24.3284 23.6016 23.5V14.8328C23.6015 14.4131 23.7773 14.0125 24.0863 13.7284L31.5863 6.65219L31.5966 6.64188C32.1688 6.1215 33.0428 6.1215 33.615 6.64188C33.6182 6.64554 33.6216 6.64899 33.6253 6.65219L41.1253 13.7284C41.4312 14.014 41.6038 14.4144 41.6016 14.8328Z" fill="#0D121C"/>
</g>
<defs>
<clipPath id="clip0_4_197">
<rect width="24" height="24" fill="white" transform="translate(20.6016 4)"/>
</clipPath>
</defs>
</svg>
