<svg width="66" height="32" viewBox="0 0 66 32" fill="none" xmlns="http://www.w3.org/2000/svg">
<g clip-path="url(#clip0_4_209)">
<path fill-rule="evenodd" clip-rule="evenodd" d="M42.0078 8.5H24.0078C23.1794 8.5 22.5078 9.17157 22.5078 10V22C22.5078 22.8284 23.1794 23.5 24.0078 23.5H42.0078C42.8362 23.5 43.5078 22.8284 43.5078 22V10C43.5078 9.17157 42.8362 8.5 42.0078 8.5ZM42.0078 10V12.25H24.0078V10H42.0078ZM42.0078 22H24.0078V13.75H42.0078V22ZM40.5078 19.75C40.5078 20.1642 40.172 20.5 39.7578 20.5H36.7578C36.3436 20.5 36.0078 20.1642 36.0078 19.75C36.0078 19.3358 36.3436 19 36.7578 19H39.7578C40.172 19 40.5078 19.3358 40.5078 19.75ZM34.5078 19.75C34.5078 20.1642 34.172 20.5 33.7578 20.5H32.2578C31.8436 20.5 31.5078 20.1642 31.5078 19.75C31.5078 19.3358 31.8436 19 32.2578 19H33.7578C34.172 19 34.5078 19.3358 34.5078 19.75Z" fill="#4F6696"/>
</g>
<defs>
<clipPath id="clip0_4_209">
<rect width="24" height="24" fill="white" transform="translate(21.0078 4)"/>
</clipPath>
</defs>
</svg>
