<svg width="67" height="32" viewBox="0 0 67 32" fill="none" xmlns="http://www.w3.org/2000/svg">
<g clip-path="url(#clip0_4_221)">
<path fill-rule="evenodd" clip-rule="evenodd" d="M33.4141 6.25C28.0293 6.25 23.6641 10.6152 23.6641 16C23.6641 21.3848 28.0293 25.75 33.4141 25.75C38.7988 25.75 43.1641 21.3848 43.1641 16C43.1584 10.6176 38.7965 6.25568 33.4141 6.25ZM28.3591 22.5156C29.4617 20.7912 31.3673 19.7478 33.4141 19.7478C35.4609 19.7478 37.3665 20.7912 38.4691 22.5156C35.4957 24.828 31.3324 24.828 28.3591 22.5156ZM30.4141 15.25C30.4141 13.5931 31.7572 12.25 33.4141 12.25C35.0709 12.25 36.4141 13.5931 36.4141 15.25C36.4141 16.9069 35.0709 18.25 33.4141 18.25C31.7572 18.25 30.4141 16.9069 30.4141 15.25ZM39.5791 21.4759C38.7426 20.2638 37.5664 19.3261 36.1984 18.7806C37.7047 17.5943 38.2938 15.5838 37.666 13.7721C37.0382 11.9604 35.3314 10.7455 33.4141 10.7455C31.4967 10.7455 29.7899 11.9604 29.1621 13.7721C28.5343 15.5838 29.1234 17.5943 30.6297 18.7806C29.2617 19.3261 28.0855 20.2638 27.2491 21.4759C24.3045 18.1647 24.5016 13.1188 27.6954 10.0473C30.8892 6.97579 35.9389 6.97579 39.1327 10.0473C42.3265 13.1188 42.5236 18.1647 39.5791 21.4759Z" fill="#4F6696"/>
</g>
<defs>
<clipPath id="clip0_4_221">
<rect width="24" height="24" fill="white" transform="translate(21.4141 4)"/>
</clipPath>
</defs>
</svg>
